<mxfile host="app.diagrams.net" modified="2021-08-03T01:22:17.257Z" agent="5.0 (Windows NT 10.0; Win64; x64) AppleWebKit/537.36 (KHTML, like Gecko) Chrome/92.0.4515.107 Safari/537.36" etag="-IjxOxVv1YoBbfMP-boy" version="14.9.3" type="github">
  <diagram id="CGycDjPX22Euf9BJy-QL" name="Page-1">
    <mxGraphModel dx="1237" dy="767" grid="1" gridSize="10" guides="1" tooltips="1" connect="1" arrows="1" fold="1" page="1" pageScale="1" pageWidth="827" pageHeight="1169" math="0" shadow="0">
      <root>
        <mxCell id="0" />
        <mxCell id="1" parent="0" />
        <mxCell id="GNY0xa0mMXAM1sH0xaiu-1" value="Proposal Auto Update Handler" style="shape=umlLifeline;perimeter=lifelinePerimeter;whiteSpace=wrap;html=1;container=1;collapsible=0;recursiveResize=0;outlineConnect=0;fillColor=#ffe6cc;strokeColor=#d79b00;" vertex="1" parent="1">
          <mxGeometry x="240" y="40" width="80" height="600" as="geometry" />
        </mxCell>
        <mxCell id="GNY0xa0mMXAM1sH0xaiu-3" value="Approved&amp;amp;Non Executing&lt;br&gt;&amp;nbsp;With Reopen" style="html=1;verticalAlign=bottom;startArrow=none;startFill=0;endArrow=open;startSize=6;endSize=8;" edge="1" parent="1" source="GNY0xa0mMXAM1sH0xaiu-43" target="GNY0xa0mMXAM1sH0xaiu-4">
          <mxGeometry width="80" relative="1" as="geometry">
            <mxPoint x="100" y="120" as="sourcePoint" />
            <mxPoint x="240" y="120" as="targetPoint" />
            <Array as="points">
              <mxPoint x="140" y="120" />
            </Array>
            <mxPoint as="offset" />
          </mxGeometry>
        </mxCell>
        <mxCell id="GNY0xa0mMXAM1sH0xaiu-4" value="" style="html=1;points=[];perimeter=orthogonalPerimeter;fillColor=#fff2cc;strokeColor=#d6b656;" vertex="1" parent="1">
          <mxGeometry x="275" y="120" width="10" height="490" as="geometry" />
        </mxCell>
        <mxCell id="GNY0xa0mMXAM1sH0xaiu-5" value="Proposal Auto Update Actions" style="shape=umlLifeline;perimeter=lifelinePerimeter;whiteSpace=wrap;html=1;container=1;collapsible=0;recursiveResize=0;outlineConnect=0;fillColor=#ffe6cc;strokeColor=#d79b00;" vertex="1" parent="1">
          <mxGeometry x="400" y="40" width="80" height="600" as="geometry" />
        </mxCell>
        <mxCell id="GNY0xa0mMXAM1sH0xaiu-6" value="" style="html=1;points=[];perimeter=orthogonalPerimeter;fillColor=#fff2cc;strokeColor=#d6b656;" vertex="1" parent="GNY0xa0mMXAM1sH0xaiu-5">
          <mxGeometry x="35" y="90" width="10" height="310" as="geometry" />
        </mxCell>
        <mxCell id="GNY0xa0mMXAM1sH0xaiu-15" value="" style="html=1;points=[];perimeter=orthogonalPerimeter;fillColor=#f8cecc;strokeColor=#b85450;" vertex="1" parent="GNY0xa0mMXAM1sH0xaiu-5">
          <mxGeometry x="40" y="170" width="10" height="140" as="geometry" />
        </mxCell>
        <mxCell id="GNY0xa0mMXAM1sH0xaiu-16" value="Loop Contract" style="edgeStyle=orthogonalEdgeStyle;html=1;align=left;spacingLeft=2;endArrow=block;rounded=0;entryX=1;entryY=0;" edge="1" target="GNY0xa0mMXAM1sH0xaiu-15" parent="GNY0xa0mMXAM1sH0xaiu-5" source="GNY0xa0mMXAM1sH0xaiu-6">
          <mxGeometry x="0.7647" y="-10" relative="1" as="geometry">
            <mxPoint x="110" y="240" as="sourcePoint" />
            <Array as="points">
              <mxPoint x="70" y="150" />
              <mxPoint x="70" y="170" />
            </Array>
            <mxPoint as="offset" />
          </mxGeometry>
        </mxCell>
        <mxCell id="GNY0xa0mMXAM1sH0xaiu-24" value="Update ProposalContext" style="edgeStyle=orthogonalEdgeStyle;html=1;align=left;spacingLeft=2;endArrow=block;rounded=0;" edge="1" parent="GNY0xa0mMXAM1sH0xaiu-5" source="GNY0xa0mMXAM1sH0xaiu-15" target="GNY0xa0mMXAM1sH0xaiu-6">
          <mxGeometry x="0.5385" y="-10" relative="1" as="geometry">
            <mxPoint x="80" y="330" as="sourcePoint" />
            <Array as="points">
              <mxPoint x="70" y="310" />
              <mxPoint x="70" y="330" />
            </Array>
            <mxPoint x="85" y="350" as="targetPoint" />
            <mxPoint as="offset" />
          </mxGeometry>
        </mxCell>
        <mxCell id="GNY0xa0mMXAM1sH0xaiu-7" value="InactiveItemLocationAction" style="html=1;verticalAlign=bottom;endArrow=block;" edge="1" parent="1" source="GNY0xa0mMXAM1sH0xaiu-4" target="GNY0xa0mMXAM1sH0xaiu-6">
          <mxGeometry width="80" relative="1" as="geometry">
            <mxPoint x="320" y="140" as="sourcePoint" />
            <mxPoint x="400" y="140" as="targetPoint" />
            <Array as="points">
              <mxPoint x="320" y="130" />
            </Array>
          </mxGeometry>
        </mxCell>
        <mxCell id="GNY0xa0mMXAM1sH0xaiu-25" value="&amp;lt;proposalContext&amp;gt;" style="edgeLabel;html=1;align=center;verticalAlign=middle;resizable=0;points=[];" vertex="1" connectable="0" parent="GNY0xa0mMXAM1sH0xaiu-7">
          <mxGeometry x="-0.1818" relative="1" as="geometry">
            <mxPoint x="10" y="10" as="offset" />
          </mxGeometry>
        </mxCell>
        <mxCell id="GNY0xa0mMXAM1sH0xaiu-8" value="Proposal Auto Update Unit Actions" style="shape=umlLifeline;perimeter=lifelinePerimeter;whiteSpace=wrap;html=1;container=1;collapsible=0;recursiveResize=0;outlineConnect=0;fillColor=#ffe6cc;strokeColor=#d79b00;" vertex="1" parent="1">
          <mxGeometry x="560" y="40" width="80" height="600" as="geometry" />
        </mxCell>
        <mxCell id="GNY0xa0mMXAM1sH0xaiu-9" value="" style="html=1;points=[];perimeter=orthogonalPerimeter;fillColor=#fff2cc;strokeColor=#d6b656;" vertex="1" parent="GNY0xa0mMXAM1sH0xaiu-8">
          <mxGeometry x="35" y="260" width="10" height="30" as="geometry" />
        </mxCell>
        <mxCell id="GNY0xa0mMXAM1sH0xaiu-12" value="" style="html=1;points=[];perimeter=orthogonalPerimeter;fillColor=#fff2cc;strokeColor=#d6b656;" vertex="1" parent="GNY0xa0mMXAM1sH0xaiu-8">
          <mxGeometry x="35" y="200" width="10" height="30" as="geometry" />
        </mxCell>
        <mxCell id="GNY0xa0mMXAM1sH0xaiu-37" value="" style="html=1;points=[];perimeter=orthogonalPerimeter;fillColor=#fff2cc;strokeColor=#d6b656;" vertex="1" parent="GNY0xa0mMXAM1sH0xaiu-8">
          <mxGeometry x="35" y="480" width="10" height="30" as="geometry" />
        </mxCell>
        <mxCell id="GNY0xa0mMXAM1sH0xaiu-10" value="CommentUnitAction" style="html=1;verticalAlign=bottom;endArrow=block;" edge="1" parent="1" source="GNY0xa0mMXAM1sH0xaiu-15" target="GNY0xa0mMXAM1sH0xaiu-9">
          <mxGeometry width="80" relative="1" as="geometry">
            <mxPoint x="480" y="150" as="sourcePoint" />
            <mxPoint x="560" y="150" as="targetPoint" />
            <Array as="points">
              <mxPoint x="490" y="300" />
            </Array>
            <mxPoint as="offset" />
          </mxGeometry>
        </mxCell>
        <mxCell id="GNY0xa0mMXAM1sH0xaiu-11" value="CommentModel" style="html=1;verticalAlign=bottom;endArrow=open;dashed=1;endSize=8;" edge="1" parent="1" source="GNY0xa0mMXAM1sH0xaiu-9" target="GNY0xa0mMXAM1sH0xaiu-15">
          <mxGeometry relative="1" as="geometry">
            <mxPoint x="580" y="170" as="sourcePoint" />
            <mxPoint x="500" y="170" as="targetPoint" />
            <Array as="points">
              <mxPoint x="560" y="330" />
            </Array>
            <mxPoint as="offset" />
          </mxGeometry>
        </mxCell>
        <mxCell id="GNY0xa0mMXAM1sH0xaiu-13" value="RemoveItemLocationUnitAction" style="html=1;verticalAlign=bottom;endArrow=block;" edge="1" parent="1" source="GNY0xa0mMXAM1sH0xaiu-15" target="GNY0xa0mMXAM1sH0xaiu-12">
          <mxGeometry width="80" relative="1" as="geometry">
            <mxPoint x="490" y="220" as="sourcePoint" />
            <mxPoint x="540" y="210" as="targetPoint" />
            <Array as="points">
              <mxPoint x="470" y="240" />
            </Array>
          </mxGeometry>
        </mxCell>
        <mxCell id="GNY0xa0mMXAM1sH0xaiu-14" value="ContractModel" style="html=1;verticalAlign=bottom;endArrow=open;dashed=1;endSize=8;" edge="1" parent="1" source="GNY0xa0mMXAM1sH0xaiu-12" target="GNY0xa0mMXAM1sH0xaiu-15">
          <mxGeometry relative="1" as="geometry">
            <mxPoint x="560" y="220" as="sourcePoint" />
            <mxPoint x="480" y="260" as="targetPoint" />
            <Array as="points">
              <mxPoint x="560" y="270" />
            </Array>
          </mxGeometry>
        </mxCell>
        <mxCell id="GNY0xa0mMXAM1sH0xaiu-17" value="Product Service" style="shape=umlLifeline;perimeter=lifelinePerimeter;whiteSpace=wrap;html=1;container=1;collapsible=0;recursiveResize=0;outlineConnect=0;fillColor=#f8cecc;strokeColor=#b85450;" vertex="1" parent="1">
          <mxGeometry x="680" y="40" width="80" height="600" as="geometry" />
        </mxCell>
        <mxCell id="GNY0xa0mMXAM1sH0xaiu-20" value="" style="html=1;points=[];perimeter=orthogonalPerimeter;fillColor=#f8cecc;strokeColor=#b85450;" vertex="1" parent="GNY0xa0mMXAM1sH0xaiu-17">
          <mxGeometry x="35" y="100" width="10" height="30" as="geometry" />
        </mxCell>
        <mxCell id="GNY0xa0mMXAM1sH0xaiu-19" value="Get Item Attributes Change Log" style="html=1;verticalAlign=bottom;endArrow=block;" edge="1" parent="1" source="GNY0xa0mMXAM1sH0xaiu-6" target="GNY0xa0mMXAM1sH0xaiu-20">
          <mxGeometry width="80" relative="1" as="geometry">
            <mxPoint x="420" y="140" as="sourcePoint" />
            <mxPoint x="500" y="140" as="targetPoint" />
            <Array as="points">
              <mxPoint x="450" y="140" />
            </Array>
          </mxGeometry>
        </mxCell>
        <mxCell id="GNY0xa0mMXAM1sH0xaiu-21" value="List&amp;lt;ItemAttributesChangeLogModel&amp;gt;" style="html=1;verticalAlign=bottom;endArrow=open;dashed=1;endSize=8;" edge="1" parent="1" source="GNY0xa0mMXAM1sH0xaiu-20" target="GNY0xa0mMXAM1sH0xaiu-6">
          <mxGeometry relative="1" as="geometry">
            <mxPoint x="680" y="160" as="sourcePoint" />
            <mxPoint x="600" y="160" as="targetPoint" />
            <Array as="points">
              <mxPoint x="670" y="170" />
            </Array>
          </mxGeometry>
        </mxCell>
        <mxCell id="GNY0xa0mMXAM1sH0xaiu-26" value="List&amp;lt;DecisionAction&amp;gt;" style="html=1;verticalAlign=bottom;endArrow=open;dashed=1;endSize=8;" edge="1" parent="1" source="GNY0xa0mMXAM1sH0xaiu-6" target="GNY0xa0mMXAM1sH0xaiu-4">
          <mxGeometry relative="1" as="geometry">
            <mxPoint x="380" y="380" as="sourcePoint" />
            <mxPoint x="300" y="380" as="targetPoint" />
            <Array as="points">
              <mxPoint x="370" y="440" />
            </Array>
          </mxGeometry>
        </mxCell>
        <mxCell id="GNY0xa0mMXAM1sH0xaiu-27" value="" style="html=1;points=[];perimeter=orthogonalPerimeter;fillColor=#fff2cc;strokeColor=#d6b656;" vertex="1" parent="1">
          <mxGeometry x="435" y="470" width="10" height="130" as="geometry" />
        </mxCell>
        <mxCell id="GNY0xa0mMXAM1sH0xaiu-28" value="NewAddLocationAction" style="html=1;verticalAlign=bottom;endArrow=block;" edge="1" parent="1" source="GNY0xa0mMXAM1sH0xaiu-4" target="GNY0xa0mMXAM1sH0xaiu-27">
          <mxGeometry width="80" relative="1" as="geometry">
            <mxPoint x="295" y="140" as="sourcePoint" />
            <mxPoint x="405" y="140" as="targetPoint" />
            <Array as="points">
              <mxPoint x="360" y="470" />
            </Array>
          </mxGeometry>
        </mxCell>
        <mxCell id="GNY0xa0mMXAM1sH0xaiu-29" value="&amp;lt;proposalContext&amp;gt;" style="edgeLabel;html=1;align=center;verticalAlign=middle;resizable=0;points=[];" vertex="1" connectable="0" parent="GNY0xa0mMXAM1sH0xaiu-28">
          <mxGeometry x="-0.1818" relative="1" as="geometry">
            <mxPoint x="10" y="10" as="offset" />
          </mxGeometry>
        </mxCell>
        <mxCell id="GNY0xa0mMXAM1sH0xaiu-30" value="" style="html=1;points=[];perimeter=orthogonalPerimeter;fillColor=#fff2cc;strokeColor=#d6b656;" vertex="1" parent="1">
          <mxGeometry x="595" y="400" width="10" height="30" as="geometry" />
        </mxCell>
        <mxCell id="GNY0xa0mMXAM1sH0xaiu-31" value="UpdateProposalRequestUnitAction" style="html=1;verticalAlign=bottom;endArrow=block;" edge="1" parent="1" source="GNY0xa0mMXAM1sH0xaiu-6" target="GNY0xa0mMXAM1sH0xaiu-30">
          <mxGeometry width="80" relative="1" as="geometry">
            <mxPoint x="460" y="250" as="sourcePoint" />
            <mxPoint x="605" y="250" as="targetPoint" />
            <Array as="points">
              <mxPoint x="470" y="400" />
            </Array>
          </mxGeometry>
        </mxCell>
        <mxCell id="GNY0xa0mMXAM1sH0xaiu-32" value="proposalRequest" style="html=1;verticalAlign=bottom;endArrow=open;dashed=1;endSize=8;" edge="1" parent="1" source="GNY0xa0mMXAM1sH0xaiu-30" target="GNY0xa0mMXAM1sH0xaiu-6">
          <mxGeometry relative="1" as="geometry">
            <mxPoint x="590" y="430" as="sourcePoint" />
            <mxPoint x="445" y="430" as="targetPoint" />
            <Array as="points">
              <mxPoint x="555" y="430" />
            </Array>
            <mxPoint as="offset" />
          </mxGeometry>
        </mxCell>
        <mxCell id="GNY0xa0mMXAM1sH0xaiu-33" value="List&amp;lt;DecisionAction&amp;gt;" style="html=1;verticalAlign=bottom;endArrow=open;dashed=1;endSize=8;" edge="1" parent="1" source="GNY0xa0mMXAM1sH0xaiu-27" target="GNY0xa0mMXAM1sH0xaiu-4">
          <mxGeometry relative="1" as="geometry">
            <mxPoint x="445" y="450" as="sourcePoint" />
            <mxPoint x="295" y="450" as="targetPoint" />
            <Array as="points">
              <mxPoint x="390" y="600" />
            </Array>
          </mxGeometry>
        </mxCell>
        <mxCell id="GNY0xa0mMXAM1sH0xaiu-34" value="" style="html=1;points=[];perimeter=orthogonalPerimeter;fillColor=#f8cecc;strokeColor=#b85450;" vertex="1" parent="1">
          <mxGeometry x="440" y="500" width="10" height="70" as="geometry" />
        </mxCell>
        <mxCell id="GNY0xa0mMXAM1sH0xaiu-35" value="Update ProposalContext" style="edgeStyle=orthogonalEdgeStyle;html=1;align=left;spacingLeft=2;endArrow=block;rounded=0;" edge="1" parent="1" source="GNY0xa0mMXAM1sH0xaiu-34" target="GNY0xa0mMXAM1sH0xaiu-27">
          <mxGeometry x="0.5385" y="-10" relative="1" as="geometry">
            <mxPoint x="450" y="540" as="sourcePoint" />
            <Array as="points">
              <mxPoint x="470" y="570" />
              <mxPoint x="470" y="590" />
            </Array>
            <mxPoint x="445" y="560" as="targetPoint" />
            <mxPoint as="offset" />
          </mxGeometry>
        </mxCell>
        <mxCell id="GNY0xa0mMXAM1sH0xaiu-36" value="Loop Contract" style="edgeStyle=orthogonalEdgeStyle;html=1;align=left;spacingLeft=2;endArrow=block;rounded=0;" edge="1" parent="1" source="GNY0xa0mMXAM1sH0xaiu-27" target="GNY0xa0mMXAM1sH0xaiu-34">
          <mxGeometry x="0.7647" y="-10" relative="1" as="geometry">
            <mxPoint x="470" y="490" as="sourcePoint" />
            <Array as="points">
              <mxPoint x="470" y="480" />
              <mxPoint x="470" y="500" />
            </Array>
            <mxPoint x="475" y="510" as="targetPoint" />
            <mxPoint as="offset" />
          </mxGeometry>
        </mxCell>
        <mxCell id="GNY0xa0mMXAM1sH0xaiu-39" value="CommentModel" style="html=1;verticalAlign=bottom;endArrow=open;dashed=1;endSize=8;" edge="1" parent="1" source="GNY0xa0mMXAM1sH0xaiu-37" target="GNY0xa0mMXAM1sH0xaiu-34">
          <mxGeometry relative="1" as="geometry">
            <mxPoint x="580" y="380" as="sourcePoint" />
            <mxPoint x="450" y="540" as="targetPoint" />
            <Array as="points">
              <mxPoint x="560" y="550" />
            </Array>
            <mxPoint as="offset" />
          </mxGeometry>
        </mxCell>
        <mxCell id="GNY0xa0mMXAM1sH0xaiu-38" value="CommentUnitAction" style="html=1;verticalAlign=bottom;endArrow=block;" edge="1" parent="1" target="GNY0xa0mMXAM1sH0xaiu-37" source="GNY0xa0mMXAM1sH0xaiu-34">
          <mxGeometry width="80" relative="1" as="geometry">
            <mxPoint x="450" y="510" as="sourcePoint" />
            <mxPoint x="560" y="360" as="targetPoint" />
            <Array as="points">
              <mxPoint x="490" y="520" />
            </Array>
            <mxPoint as="offset" />
          </mxGeometry>
        </mxCell>
        <mxCell id="GNY0xa0mMXAM1sH0xaiu-41" value="List&amp;lt;DecisionAction&amp;gt;" style="html=1;verticalAlign=bottom;endArrow=open;dashed=1;endSize=8;" edge="1" parent="1" source="GNY0xa0mMXAM1sH0xaiu-4" target="GNY0xa0mMXAM1sH0xaiu-43">
          <mxGeometry relative="1" as="geometry">
            <mxPoint x="240" y="610" as="sourcePoint" />
            <mxPoint x="100" y="620" as="targetPoint" />
            <Array as="points">
              <mxPoint x="180" y="610" />
            </Array>
          </mxGeometry>
        </mxCell>
        <mxCell id="GNY0xa0mMXAM1sH0xaiu-42" value="Proposal Auto Update Handler" style="shape=umlLifeline;perimeter=lifelinePerimeter;whiteSpace=wrap;html=1;container=1;collapsible=0;recursiveResize=0;outlineConnect=0;fillColor=#ffe6cc;strokeColor=#d79b00;" vertex="1" parent="1">
          <mxGeometry x="80" y="40" width="80" height="600" as="geometry" />
        </mxCell>
        <mxCell id="GNY0xa0mMXAM1sH0xaiu-43" value="" style="html=1;points=[];perimeter=orthogonalPerimeter;fillColor=#fff2cc;strokeColor=#d6b656;" vertex="1" parent="GNY0xa0mMXAM1sH0xaiu-42">
          <mxGeometry x="35" y="80" width="10" height="490" as="geometry" />
        </mxCell>
      </root>
    </mxGraphModel>
  </diagram>
</mxfile>
